<svg version="1.1" xmlns="http://www.w3.org/2000/svg" xmlns:xlink="http://www.w3.org/1999/xlink" width="207.57201" height="172.59345" viewBox="0,0,207.57201,172.59345"><g transform="translate(-135.69605,-93.88286)"><g data-paper-data="{&quot;isPaintingLayer&quot;:true}" fill="#ffffff" fill-rule="nonzero" stroke="#000000" stroke-width="5.5" stroke-linecap="butt" stroke-linejoin="miter" stroke-miterlimit="10" stroke-dasharray="" stroke-dashoffset="0" style="mix-blend-mode: normal"><path d="M139.9069,97.24535l25.15063,3.5c0,0 16.30941,50.67513 24.99685,56.79307c3.33277,2.34703 7.6806,-4.85347 12.50574,-10.3497c4.82515,-5.49623 20.68974,-40.94225 39.30947,-40.25481c14.10287,0.52068 48.55372,45.14571 59.69068,48.75204c8.46694,2.74173 15.0111,-57.15533 15.0111,-57.15533l23.52174,4.98173c0,0 -10.62258,59.54059 -19.33653,87.59251c-7.96843,25.65196 -35.48143,71.64981 -35.48143,71.64981l-20.26321,-11.53824c0,0 17.1464,-26.95064 23.25283,-39.01037c5.28005,-10.42771 10.76834,-25.66638 10.76834,-25.66638c0,0 -12.35396,-17.73108 -26.5309,-33.64184c-13.15492,-14.76374 -19.58794,-27.82115 -30.48858,-27.14965c-10.61315,0.65379 -39.70386,68.74949 -46.32909,68.37153c-19.58335,-1.1172 -55.77764,-96.87436 -55.77764,-96.87436z"/></g></g></svg>